<svg xmlns="http://www.w3.org/2000/svg" width="292" height="292" viewBox="0 0 292 292"><g transform="translate(-801 -606)"><rect width="292" height="292" rx="40" transform="translate(801 606)" fill="#f7fff6"/><g transform="translate(870 684)"><g transform="translate(0 4)"><path d="M144.09,112.868H9.606A9.618,9.618,0,0,1,0,103.262V13.606A9.618,9.618,0,0,1,9.606,4H144.09a9.618,9.618,0,0,1,9.606,9.606v89.656A9.618,9.618,0,0,1,144.09,112.868ZM9.606,10.4a3.207,3.207,0,0,0-3.2,3.2v89.656a3.207,3.207,0,0,0,3.2,3.2H144.09a3.207,3.207,0,0,0,3.2-3.2V13.606a3.207,3.207,0,0,0-3.2-3.2Z" transform="translate(0 -4)" fill="#054a29" stroke="#054a29" stroke-width="2"/></g><g transform="translate(51.229 106.464)"><path d="M56.032,45.616H11.2a3.206,3.206,0,0,1-2.267-5.469c8.428-8.428,8.537-16.586,8.537-16.932A3.232,3.232,0,0,1,20.682,20H46.426a3.2,3.2,0,0,1,3.2,3.183c.006.4.256,8.556,8.671,16.964a3.206,3.206,0,0,1-2.267,5.469Zm-37.969-6.4h31.1A33.455,33.455,0,0,1,43.6,26.4H23.551a32.989,32.989,0,0,1-5.488,12.808ZM49.628,23.2h0Z" transform="translate(-8 -20)" fill="#054a29" stroke="#054a29" stroke-width="2"/></g><g transform="translate(0 87.252)"><path d="M150.494,23.4H3.2a3.2,3.2,0,1,1,0-6.4H150.494a3.2,3.2,0,1,1,0,6.4Z" transform="translate(0 -17)" fill="#054a29" stroke="#054a29" stroke-width="2"/></g></g></g></svg>