<svg xmlns="http://www.w3.org/2000/svg" width="292" height="292" viewBox="0 0 292 292"><g transform="translate(-1145 -606)"><rect width="292" height="292" rx="40" transform="translate(1145 606)" fill="#f7fff6"/><path d="M149.275,88.763v55.319a13.108,13.108,0,0,1-13.093,13.093H20.96A13.108,13.108,0,0,1,7.867,144.083V88.763a2.619,2.619,0,0,1,5.237,0v55.319a7.865,7.865,0,0,0,7.856,7.856H49.438v-44.19A13.108,13.108,0,0,1,62.531,94.655H94.61A13.108,13.108,0,0,1,107.7,107.749v33.715a2.619,2.619,0,1,1-5.237,0V107.749a7.865,7.865,0,0,0-7.856-7.856H62.531a7.865,7.865,0,0,0-7.856,7.856v44.19H75.952V110.695a2.619,2.619,0,0,1,5.237,0v41.244h54.992a7.865,7.865,0,0,0,7.856-7.856V88.763a2.619,2.619,0,0,1,5.237,0ZM17.032,41.955a2.619,2.619,0,0,0,2.619,2.619c142.478,0,135.414.255,136.455-.544a2.6,2.6,0,0,0,1-1.713c.146-1.052,1.086,1.536-17.209-40.684a2.619,2.619,0,0,0-2.4-1.577H19.65a2.619,2.619,0,0,0-2.4,1.577L.226,40.913c-.3.695-.216-.408-.216,17.287A21.595,21.595,0,0,0,40.594,68.489a21.61,21.61,0,0,0,37.976.01,21.61,21.61,0,0,0,37.971,0A21.6,21.6,0,0,0,157.13,58.2a2.619,2.619,0,1,0-5.237,0,16.367,16.367,0,0,1-32.733,0,2.619,2.619,0,1,0-5.237,0,16.367,16.367,0,0,1-32.733,0,2.619,2.619,0,1,0-5.237,0,16.367,16.367,0,1,1-32.733-.131,2.619,2.619,0,1,0-5.237,0A16.367,16.367,0,1,1,5.248,58.2V42.5L21.37,5.293h114.4l14.752,34.043H19.651a2.618,2.618,0,0,0-2.619,2.619Z" transform="translate(1212.001 673.944)" fill="#054a29" stroke="#054a29" stroke-width="3"/></g></svg>