<svg xmlns="http://www.w3.org/2000/svg" width="292" height="292" viewBox="0 0 292 292"><g transform="translate(-457 -606)"><rect width="292" height="292" rx="40" transform="translate(457 606)" fill="#f7fff6"/><g transform="translate(546.333 665)"><path d="M11.906,34.167A4.908,4.908,0,0,1,7,29.26V19.448A11.46,11.46,0,0,1,18.448,8H28.26a4.906,4.906,0,0,1,0,9.813H18.448a1.636,1.636,0,0,0-1.635,1.635V29.26A4.908,4.908,0,0,1,11.906,34.167Z" transform="translate(16.625 44.333)" fill="#054a29"/><path d="M34.26,34.167a4.908,4.908,0,0,1-4.906-4.906V19.448a1.636,1.636,0,0,0-1.635-1.635H17.906a4.906,4.906,0,1,1,0-9.813h9.812A11.46,11.46,0,0,1,39.167,19.448V29.26A4.908,4.908,0,0,1,34.26,34.167Z" transform="translate(49.875 44.333)" fill="#054a29"/><path d="M28.26,40.167H18.448A11.46,11.46,0,0,1,7,28.719V18.906a4.906,4.906,0,0,1,9.813,0v9.813a1.636,1.636,0,0,0,1.635,1.635H28.26a4.906,4.906,0,1,1,0,9.812Z" transform="translate(16.625 77.583)" fill="#054a29"/><path d="M27.719,40.167H17.906a4.906,4.906,0,1,1,0-9.812h9.812a1.636,1.636,0,0,0,1.635-1.635V18.906a4.906,4.906,0,0,1,9.813,0v9.813A11.46,11.46,0,0,1,27.719,40.167Z" transform="translate(49.875 77.583)" fill="#054a29"/><path d="M59.969,26.167H30.531A11.46,11.46,0,0,1,19.083,14.719a4.916,4.916,0,0,0-4.906-4.906H10.906a4.906,4.906,0,1,1,0-9.813h3.271A14.741,14.741,0,0,1,28.9,14.719a1.636,1.636,0,0,0,1.635,1.635H59.969A1.636,1.636,0,0,0,61.6,14.719,14.741,14.741,0,0,1,76.323,0h3.271a4.906,4.906,0,0,1,0,9.813H76.323a4.916,4.916,0,0,0-4.906,4.906A11.46,11.46,0,0,1,59.969,26.167Z" transform="translate(11.083)" fill="#054a29"/><path d="M90.677,157H21.99A18,18,0,0,1,4,139.01V17.99A18,18,0,0,1,21.99,0H90.677a18,18,0,0,1,17.99,17.99V139.01A18,18,0,0,1,90.677,157ZM21.99,9.813a8.188,8.188,0,0,0-8.177,8.177V139.01a8.188,8.188,0,0,0,8.177,8.177H90.677a8.188,8.188,0,0,0,8.177-8.177V17.99a8.188,8.188,0,0,0-8.177-8.177Z" transform="translate(0 0)" fill="#054a29"/></g></g></svg>