<svg xmlns="http://www.w3.org/2000/svg" width="90" height="90" viewBox="0 0 90 90">
  <g id="noResultIcon" transform="translate(-1026 -535)">
    <circle id="Elipse_1" data-name="Elipse 1" cx="45" cy="45" r="45" transform="translate(1026 535)" fill="#e6e6ed"/>
    <g id="search_off_black_24dp" transform="translate(1047.62 556.62)">
      <g id="Grupo_12" data-name="Grupo 12" transform="translate(-0.014 -0.014)">
        <rect id="Rectángulo_12" data-name="Rectángulo 12" width="46" height="46" transform="translate(0.394 0.394)" fill="none"/>
      </g>
      <g id="Grupo_14" data-name="Grupo 14" transform="translate(1.565 5.819)">
        <g id="Grupo_13" data-name="Grupo 13">
          <path id="Trazado_4" data-name="Trazado 4" d="M27.362,24.464H25.821l-.546-.527A12.673,12.673,0,1,0,3.03,14.708H6.972a8.76,8.76,0,1,1,8.683,9.756,8.26,8.26,0,0,1-.976-.1v3.942a8.181,8.181,0,0,0,.976.059A12.627,12.627,0,0,0,23.909,25.3l.527.546v1.542l9.756,9.737L37.1,34.22Z" transform="translate(1.282 -3)" fill="#2aa93d"/>
          <path id="Trazado_5" data-name="Trazado 5" d="M11.845,10.82l-4.82,4.82-4.82-4.82L.82,12.205l4.82,4.82L.82,21.845,2.205,23.23l4.82-4.82,4.82,4.82,1.385-1.385-4.82-4.82,4.82-4.82Z" transform="translate(-0.82 4.439)" fill="#2aa93d"/>
        </g>
      </g>
    </g>
  </g>
</svg>
