<svg xmlns="http://www.w3.org/2000/svg" width="292" height="292" viewBox="0 0 292 292"><g transform="translate(-113 -606)"><rect width="292" height="292" rx="40" transform="translate(113 606)" fill="#f7fff6"/><g transform="translate(180.997 665)"><g transform="translate(2.003 0)"><path d="M175.331,218.936H146.962a4.3,4.3,0,0,0-4.3,4.3V278.9a4.3,4.3,0,0,0,4.3,4.3h28.368a4.3,4.3,0,0,0,4.3-4.3V223.234A4.3,4.3,0,0,0,175.331,218.936Zm-4.3,55.663H151.261V227.533h19.772Z" transform="translate(-84.802 -128.875)" fill="#054a29"/><path d="M311.9,136.911H283.321a4.3,4.3,0,0,0-4.3,4.3v89.4a4.3,4.3,0,0,0,4.3,4.3H311.9a4.3,4.3,0,0,0,4.3-4.3v-89.4A4.3,4.3,0,0,0,311.9,136.911Zm-4.3,89.4H287.62V145.508h19.987Z" transform="translate(-165.069 -80.592)" fill="#054a29"/><path d="M38.664,269.613H10.08a4.3,4.3,0,0,0-4.3,4.3v34.816a4.3,4.3,0,0,0,4.3,4.3H38.664a4.3,4.3,0,0,0,4.3-4.3V273.911A4.3,4.3,0,0,0,38.664,269.613Zm-4.3,34.816H14.379V278.21H34.366v26.22Z" transform="translate(-4.227 -158.706)" fill="#054a29"/><path d="M153.567,4.311a3.653,3.653,0,0,0-2.794-1.5L111.659.012a4.31,4.31,0,0,0-.645,8.6l27.683,1.88L87.8,50.3,48.9,19.785A4.3,4.3,0,0,0,43.316,20L3.343,58.254a4.3,4.3,0,0,0-.215,6.018,3.869,3.869,0,0,0,3.224,1.5,4.3,4.3,0,0,0,3.009-1.29L46.541,28.81l38.469,30.3a4.3,4.3,0,0,0,5.373,0L145.4,16.3,143.251,43a4.513,4.513,0,0,0,4.084,4.513h.215a4.3,4.3,0,0,0,4.3-3.868l2.794-36.32A3.439,3.439,0,0,0,153.567,4.311Z" transform="translate(-2.003 0)" fill="#054a29"/></g></g></g></svg>