<?xml version="1.0" encoding="utf-8"?>
<!-- Generator: Adobe Illustrator 23.0.3, SVG Export Plug-In . SVG Version: 6.00 Build 0)  -->
<svg version="1.1" id="f885adbf-893a-4cbc-9f2f-51541a368feb"
	 xmlns="http://www.w3.org/2000/svg" xmlns:xlink="http://www.w3.org/1999/xlink" x="0px" y="0px" viewBox="0 0 1090.8 795.1"
	 style="enable-background:new 0 0 1090.8 795.1;" xml:space="preserve">
<style type="text/css">
	.st0{fill:#0BA93C;}
	.st1{fill:#444053;}
	.st2{fill:none;stroke:#444053;stroke-miterlimit:10;}
	.st3{fill:none;stroke:#444053;stroke-width:0.75;stroke-miterlimit:10;}
	.st4{fill:#FFFFFF;stroke:#E8E8E8;stroke-miterlimit:10;}
	.st5{fill:#65617D;}
	.st6{opacity:0.8;fill:#FFFFFF;enable-background:new    ;}
	.st7{fill:#E6E8EC;}
	.st8{opacity:0.2;fill:#0BA93C;enable-background:new    ;}
	.st9{fill:#FFFFFF;}
	.st10{fill:#DFE3EF;}
</style>
<title>revenue</title>
<path class="st0" d="M1090.8,241.4c0,0-15.2-6.2-63.7,16s-54.5,19.4-67,16s-19.5-4.2-33-22.8c0,0-9.5-51.4-18.7-59.4
	s-48.2,4.5-48.2,4.5s-46.8,10.7-55.7-51.7c0,0,6.3-47.1-2.3-61.6c0,0,17.4,7.5,46.1-4.6s51.7,13,51.7,13s7.2,18.7,6.5,29.9
	s3.8,15.4,17.5,10c0,0,6.7-9.6-2.8-25.4s-16.3-27.6-13.7-39.8s10.3-29.3,34.8-37.8s57.9-10.2,73.9-16.8s19.9-11,19.9-11
	s-9.8,9.9,13.3,51.7s8.4,60,8.4,60s-12.3,29.4-66.8,27c0,0-52.5,1.9-23.9,24.2c0,0,18.3-3.7,45.7-12.4c27.4-8.7,47.2,27.2,52.1,52.2
	S1090.8,241.4,1090.8,241.4z"/>
<path class="st1" d="M1020.2,31.7l0.3-0.1c2.1,8-21.3,40-41.4,65.5l-0.2-0.2C1007.1,61,1021.8,37.8,1020.2,31.7z"/>
<path class="st1" d="M979.3,96.5l0.1,0.3c-16,20.4-36.2,44.7-52.3,62.7c-1.5,1.7-3.1,3.5-4.5,5.4l-0.5-0.4c1.5-1.9,3-3.7,4.5-5.4
	C942.8,141.1,963.3,116.8,979.3,96.5z"/>
<path class="st1" d="M922.5,164l0.3,0.5c-29.3,36.6-31.3,93.5-31.3,94l-6.2-7.1C885.4,250.9,893,200.8,922.5,164z"/>
<path class="st2" d="M1056.7,221.5c0,0-34.6-18-61.6-11.5s-87.7-22.8-87.7-22.8s-25.8-10.5-31-22.4c0,0-17.7-18.7-18.7-28.4
	s-18.2-34-29.5-34.9"/>
<path class="st2" d="M1051.7,238.9c0,0-17.4-11.7-15.4-25.4"/>
<path class="st2" d="M1025,254c0,0-24.9-9-27.4-44.5"/>
<path class="st2" d="M984.8,263.2c0,0-23.8-19.8-15.9-54.3"/>
<path class="st2" d="M936.5,253.5c0,0-15.9-33.2-1.8-54.9"/>
<path class="st2" d="M1057.1,199.6c0,0-18,5.7-14.2,15.2"/>
<path class="st2" d="M1035.4,166.9c0,0-24.1,7.6-24.7,41.8"/>
<path class="st2" d="M1001.8,159c0,0-21.9,27.1-20.3,51.7"/>
<path class="st2" d="M963.4,169.7c0,0-21.8,20.8-19,32.4"/>
<path class="st2" d="M950.2,162.3c0,0-20.4,3.7-23.3-3"/>
<path class="st2" d="M923.6,137.6c0,0,10.3,13.7,13,10.6"/>
<path class="st2" d="M1026,129c0,0-51.5,3.7-63.2-11.8"/>
<path class="st2" d="M912.8,68.7c0,0,24.2,51.9,41.7,58.5"/>
<path class="st2" d="M938.1,44c0,0,14.8,47.7,33.2,62.6"/>
<path class="st3" d="M1047.7,89.5c0,0-39.2,16.8-62.7-0.2"/>
<path class="st3" d="M973.1,33.8c0,0,8.9,35.1,21,43.6"/>
<path class="st3" d="M1041.8,50.3c0,0-22,8.3-30.2,2"/>
<path class="st2" d="M904.8,149.1c0,0-0.1,30.6-8.3,32.8"/>
<path class="st2" d="M836.7,188.7c0,0,33.1,2.8,48.3-14.2"/>
<path class="st2" d="M896.2,113c0,0-8,31-30.1,39.4"/>
<path class="st2" d="M816.8,156c0,0,23.4,8.1,43.5-12.6"/>
<path class="st2" d="M870.2,86.3c0,0-2.2,26.4-16.5,38.7"/>
<path class="st2" d="M817.7,115.9c0,0,19.4,0.1,24-6.2"/>
<path class="st0" d="M187.9,742.6c0,0,13.3-8.8,26.5-2.5c0,0-4.1,7.8-20.8,7.1L187.9,742.6z"/>
<path class="st0" d="M186.3,743.1c0,0-4,15.5,6.1,25.9c0,0,6.1-6.4,0.1-21.9L186.3,743.1z"/>
<path class="st0" d="M169.7,728.3c0,0,1-13.1,30.6-8.8c0,0,0.1,8.5-10.3,12.5S174.9,732.6,169.7,728.3z"/>
<path class="st0" d="M167.9,728.2c0,0-12.5,4-1.4,31.8c0,0,8.3-1.8,9.7-12.9S173.3,732.2,167.9,728.2z"/>
<path class="st0" d="M151.1,709.5c0,0-1.7-21.6,28.6-19.4c0,0,2.1,19.5-23.2,24.5L151.1,709.5z"/>
<path class="st0" d="M131.1,685.2c0,0,4.1-24.5,34.4-17.2c0,0,0.1,21.1-29.5,23L131.1,685.2z"/>
<path class="st0" d="M116.5,660c0,0,7-23.9,36.9-16.7c0,0-7.1,21.4-34.9,21.1L116.5,660z"/>
<path class="st0" d="M102.6,635.4c0,0,6.8-24.7,35.7-17.3c0,0-9.7,23.5-33.8,21.5L102.6,635.4z"/>
<path class="st0" d="M93.7,612.1c0,0,5.2-30.2,32.2-23.5c0,0-7.8,27.5-30.2,27.9L93.7,612.1z"/>
<path class="st0" d="M85.3,583.8c0,0,6.3-30.5,33.5-21.6c0,0-10.7,28.8-31.6,25.8L85.3,583.8z"/>
<path class="st0" d="M80.1,557.5c0,0,9.9-30.5,31.1-29.7c0,0-10.2,32.2-29.3,35.8L80.1,557.5z"/>
<path class="st0" d="M76.8,531.9c0,0,10.8-36.7,28-33.8c0,0-7.5,28-27.4,39.6L76.8,531.9z"/>
<path class="st0" d="M74.9,501.3c0,0,10.2-30.6,27.1-31.8c0,0-6.9,30.1-26.7,39.7L74.9,501.3z"/>
<path class="st0" d="M72.8,472.8c0,0,12.7-30.6,23.9-31.3c0,0-5.5,30.1-22.7,36.3L72.8,472.8z"/>
<path class="st0" d="M71.4,446.2c0,0,7.8-33.2,19-36c0,0-1.5,27.2-17.9,38.5L71.4,446.2z"/>
<path class="st0" d="M67.2,411.5c0,0,8.2-26.5,17.2-30.5c0,0-1.8,31.2-15.1,37L67.2,411.5z"/>
<path class="st0" d="M63.7,388.7L62.1,342c0,0,16.9,35.3,2.9,55L63.7,388.7z"/>
<path class="st0" d="M50.6,342.3c0,0-12.2-34.1-15.1-36c0,0,23.9,22.1,21.6,50.6L50.6,342.3z"/>
<path class="st0" d="M150.3,709.4c0,0-21.5-2.8-20.8,27.5c0,0,19.4,3.2,25.7-21.9L150.3,709.4z"/>
<path class="st0" d="M130.1,684.4c0,0-24.8-0.1-22.8,31c0,0,20.8,3.7,27.7-25.1L130.1,684.4z"/>
<path class="st0" d="M116.2,662c0,0-22.5-10.5-36.9,16.7c0,0,20.8,8.8,38.9-12.3L116.2,662z"/>
<path class="st0" d="M102.1,635.7c0,0-23.1-11.2-36.6,15.4c0,0,24,8.3,38.5-11.2L102.1,635.7z"/>
<path class="st0" d="M93.9,612.7c0,0-22.2-21.2-39.9,0.2c0,0,22.7,17.4,40.9,4.5L93.9,612.7z"/>
<path class="st0" d="M86.5,583.1c0,0-22.3-21.7-39.9,1c0,0,25.1,17.8,40.7,3.5L86.5,583.1z"/>
<path class="st0" d="M82.4,556.7c0,0-17.2-27-37.4-21c0,0,17.8,28.7,37.3,27.4L82.4,556.7z"/>
<path class="st0" d="M77.3,531.8c0,0-17.4-34.1-33.7-28.2c0,0,12.5,26.2,34.2,33.9L77.3,531.8z"/>
<path class="st0" d="M76.1,499.5c0,0-17.8-26.8-34.5-23.6c0,0,14.6,27.2,36.2,31.3L76.1,499.5z"/>
<path class="st0" d="M74.7,472.2c0,0-13.8-30.1-25-30.4c0,0,6.6,29.9,24.1,35.4L74.7,472.2z"/>
<path class="st0" d="M72,445.6c0,0-15.4-30.5-26.9-30.5c0,0,7.9,26.1,26.4,33.2L72,445.6z"/>
<path class="st0" d="M69.7,413.4c0,0-11.5-25.2-21-28.1c0,0,5.7,30.8,19.7,34.8L69.7,413.4z"/>
<path class="st0" d="M62.4,387.8l-25.7-39.1c0,0,6.6,38.5,29.4,46.5L62.4,387.8z"/>
<path class="st0" d="M44.8,345.4c0,0-29.8-20.6-30.9-23.9c0,0,15.2,28.8,43.3,33.9L44.8,345.4z"/>
<path class="st0" d="M43,336.1c0,0-34.2-32.9-43-32.9c0,0,28.2,1.3,43.8,31.1L43,336.1z"/>
<path class="st1" d="M69.4,418.3l-1.2,0.2c-6.4-50.4-15.8-80.1-26.4-83.8l0.4-1.2C53.4,337.4,62.8,366.7,69.4,418.3z"/>
<path class="st1" d="M78.8,538.6l-1.9,0.2c-0.4-4.7-0.7-9.5-0.9-14.3c-1.8-41.7-4.6-79.9-8.2-108.6l1.1-1.3
	c3.7,28.7,7.2,68.2,9,109.9C78.1,529.2,78.4,534,78.8,538.6z"/>
<path class="st1" d="M223.1,766.5c-0.3-0.2-33.5-15-67.9-50.3c-20.2-20.7-36.9-44.4-49.7-70.3C89.6,613.5,79.9,573.7,76.6,535l2,0.9
	c7.3,86.8,46.8,146.2,78.3,178.5c34.1,35,66.9,49.7,67.2,49.8L223.1,766.5z"/>
<path class="st4" d="M1000.6,133.3v604.8c0,18-17.3,32.6-38.8,32.6H141.2c-21.4,0-38.8-14.6-38.8-32.6V133.3
	c0-18,17.4-36.4,38.8-36.4l820.6,2C983.2,98.9,1000.6,115.3,1000.6,133.3z"/>
<path class="st5" d="M1000.6,133.5v28H102.5v-28c0-20.2,16.4-36.6,36.6-36.6l0,0h825C984.2,96.9,1000.6,113.2,1000.6,133.5
	C1000.6,133.4,1000.6,133.4,1000.6,133.5z"/>
<circle class="st6" cx="146" cy="129.2" r="12.9"/>
<circle class="st6" cx="183.6" cy="129.2" r="12.9"/>
<circle class="st6" cx="221.2" cy="129.2" r="12.9"/>
<circle class="st7" cx="802.5" cy="685.8" r="0.9"/>
<circle class="st7" cx="854.8" cy="712.6" r="1.5"/>
<rect x="239.6" y="236.3" class="st8" width="375.7" height="208.6"/>
<rect x="403.4" y="491.5" class="st8" width="375.7" height="208.6"/>
<rect x="313.4" y="381.5" class="st9" width="11.4" height="38.1"/>
<rect x="335.1" y="334.4" class="st9" width="11.4" height="85.3"/>
<rect x="520.6" y="291.9" class="st10" width="11.4" height="127.8"/>
<rect x="378.4" y="261.5" class="st9" width="11.4" height="158.1"/>
<rect x="356.8" y="261.5" class="st0" width="11.4" height="158.1"/>
<rect x="400.1" y="332.7" class="st0" width="11.4" height="86.9"/>
<rect x="421.7" y="310.3" class="st8" width="11.4" height="109.4"/>
<rect x="443.4" y="276.1" class="st0" width="11.4" height="143.5"/>
<rect x="465" y="355.7" class="st8" width="11.4" height="63.9"/>
<rect x="486.7" y="326.2" class="st0" width="11.4" height="93.4"/>
<rect x="508.3" y="291.9" class="st8" width="11.4" height="127.8"/>
<rect x="530" y="291.9" class="st0" width="11.4" height="127.8"/>
<rect x="477.3" y="636.8" class="st9" width="11.4" height="38.1"/>
<rect x="499" y="589.6" class="st9" width="11.4" height="85.3"/>
<rect x="520.6" y="547.1" class="st10" width="11.4" height="127.8"/>
<rect x="542.3" y="516.8" class="st9" width="11.4" height="158.1"/>
<rect x="520.6" y="516.8" class="st0" width="11.4" height="158.1"/>
<rect x="563.9" y="588" class="st0" width="11.4" height="86.9"/>
<rect x="585.6" y="565.5" class="st9" width="11.4" height="109.4"/>
<rect x="607.2" y="531.4" class="st9" width="11.4" height="143.5"/>
<rect x="628.9" y="611" class="st8" width="11.4" height="63.9"/>
<rect x="650.6" y="581.5" class="st8" width="11.4" height="93.4"/>
<rect x="672.2" y="547.1" class="st8" width="11.4" height="127.8"/>
<rect x="693.9" y="547.1" class="st8" width="11.4" height="127.8"/>
</svg>
