<?xml version="1.0" encoding="utf-8"?>
<!-- Generator: Adobe Illustrator 23.0.3, SVG Export Plug-In . SVG Version: 6.00 Build 0)  -->
<svg version="1.1" id="Layer_1" xmlns="http://www.w3.org/2000/svg" xmlns:xlink="http://www.w3.org/1999/xlink" x="0px" y="0px"
	 viewBox="0 0 1145.6 819.9" style="enable-background:new 0 0 1145.6 819.9;" xml:space="preserve">
<style type="text/css">
	.st0{opacity:0.1;fill:#0BA93C;enable-background:new    ;}
	.st1{fill:url(#SVGID_1_);}
	.st2{fill:#FFFFFF;}
	.st3{opacity:4.000000e-02;fill:#FFFFFF;enable-background:new    ;}
	.st4{fill:#5A5773;}
	.st5{opacity:0.2;fill:#0BA93C;enable-background:new    ;}
	.st6{opacity:0.1;fill:#5A5773;enable-background:new    ;}
	.st7{opacity:0.1;enable-background:new    ;}
	.st8{fill:#0BA93C;}
	.st9{fill:#535461;}
	.st10{fill:#3F3D56;}
	.st11{fill:#9D9CB5;}
	.st12{fill:none;stroke:#535461;stroke-width:2;stroke-miterlimit:10;}
</style>
<title>security</title>
<path class="st0" d="M1127.4,551.2c-26.6,54.8-80.5,91.5-136.4,115.6c-75.3,32.5-158.2,45.5-239.9,40c-14.3-1-28.6-2.5-42.8-4.6
	c-49.5-7.2-97.7-21.3-143.3-41.7c-13.2-5.9-26.1-12.4-38.7-19.4c-21.1-11.7-41.3-24.9-60.5-39.5c-4.8-3.7-9.6-7.5-14.3-11.3
	c-3.2-2.7-6.5-5.4-9.7-8.1c-6.9-5.6-14-10.9-21.9-14.9c-2.4-1.2-4.8-2.3-7.3-3.2c-25.1-9.5-54-5.9-80.1,1.5
	c-19.9,5.7-39.2,13.4-59.1,18.9c-8.8,2.5-17.8,4.4-26.9,5.7c-20.3,2.6-40.9,0.8-60.5-5.3l-1.7-0.5c-2.8-0.9-5.6-1.8-8.3-2.9
	l-1.7-0.6c-2.7-1-5.3-2.1-7.8-3.3l-1.7-0.8c-2.7-1.2-5.3-2.5-7.8-3.9c-0.9-0.5-1.8-1-2.7-1.5c-14.5-8.1-27.7-18.4-39.2-30.5
	c-0.3-0.3-0.6-0.7-1-1c-1.6-1.7-3.1-3.5-4.7-5.3c-0.6-0.7-1.1-1.3-1.7-2c-1.8-2.2-3.5-4.4-5.2-6.7c-0.2-0.3-0.5-0.7-0.7-1
	c-6.8-9.4-12.5-19.7-16.9-30.5c-0.1-0.3-0.3-0.7-0.4-1c-1.3-3.4-2.6-6.9-3.7-10.5c-0.4-1.5-0.9-3-1.3-4.5c-0.1-0.4-0.2-0.9-0.4-1.3
	c-5.5-21.7-6.2-44.3-6.2-66.8c0-2.6,0-5.2,0-7.9c0.2-36.3,0.7-73.3,6.1-109.1c0-0.2,0.1-0.5,0.1-0.7c1.8-12.1,4.2-24,7.3-35.8
	c3.2-12.4,7.3-24.5,12.3-36.3c12.3-29,30.3-55.4,50.2-79.9C199.4,79.1,265.1,27.4,342.1,8.1c83-20.8,175.1-0.9,242.1,52.4
	c20.4,16.2,38.7,35.5,61.6,47.9c20,10.8,43.4,15.3,64.8,6.8c17.7-7.1,29.2-10.6,49.1-9.5c41.2,2.3,81.7,10.8,120.4,25.2
	c1.6,0.6,3.1,1.2,4.7,1.8C985.5,171.2,1072,247.8,1117,346.2c1.2,2.6,2.3,5.2,3.5,7.9C1147.3,416.7,1157,490.1,1127.4,551.2z"/>
<ellipse class="st0" cx="120.3" cy="728.8" rx="88.3" ry="14.2"/>
<linearGradient id="SVGID_1_" gradientUnits="userSpaceOnUse" x1="591.305" y1="173.92" x2="591.305" y2="712.25" gradientTransform="matrix(1 0 0 -1 0 820)">
	<stop  offset="0" style="stop-color:#808080;stop-opacity:0.25"/>
	<stop  offset="0.54" style="stop-color:#808080;stop-opacity:0.12"/>
	<stop  offset="1" style="stop-color:#808080;stop-opacity:0.1"/>
</linearGradient>
<path class="st1" d="M128.6,107.8H1054c6.9,0,12.5,5.6,12.5,12.5v513.4c0,6.9-5.6,12.5-12.5,12.5H128.6c-6.9,0-12.5-5.6-12.5-12.5
	V120.2C116.1,113.3,121.7,107.8,128.6,107.8z"/>
<path class="st2" d="M130.1,115.3h922.4c6.9,0,12.5,5.6,12.5,12.5v504c0,6.9-5.6,12.5-12.5,12.5H130.1c-6.9,0-12.5-5.6-12.5-12.5
	v-504C117.7,120.9,123.2,115.3,130.1,115.3z"/>
<path class="st2" d="M130.1,115.3h922.4c6.9,0,12.5,5.6,12.5,12.5v504c0,6.9-5.6,12.5-12.5,12.5H130.1c-6.9,0-12.5-5.6-12.5-12.5
	v-504C117.7,120.9,123.2,115.3,130.1,115.3z"/>
<path class="st3" d="M130.1,115.3h922.4c6.9,0,12.5,5.6,12.5,12.5v504c0,6.9-5.6,12.5-12.5,12.5H130.1c-6.9,0-12.5-5.6-12.5-12.5
	v-504C117.7,120.9,123.2,115.3,130.1,115.3z"/>
<path class="st4" d="M1060.3,109.2H122.5c-2.7,0-4.8,2.2-4.8,4.8v20.3H1065v-20.3C1065,111.4,1062.9,109.3,1060.3,109.2z"/>
<g>
	<circle class="st2" cx="136.6" cy="121.8" r="6.5"/>
	<circle class="st2" cx="154.1" cy="121.8" r="6.5"/>
	<circle class="st2" cx="171.6" cy="121.8" r="6.5"/>
</g>
<rect x="195.7" y="181.7" class="st5" width="254.2" height="21.6"/>
<rect x="195.7" y="268.2" class="st6" width="791.4" height="332"/>
<path class="st7" d="M659,289.9h-13.5v-26.3c0-29.7-23.7-54.4-53.4-54.8c-30-0.3-54.5,23.7-54.8,53.7c0,0.1,0,0.3,0,0.4v27h-13.5
	c-12.4,0-22.5,10.1-22.6,22.5v108.2c0,12.4,10.1,22.5,22.6,22.5H659c12.4,0,22.5-10.1,22.5-22.5V312.4
	C681.5,300,671.5,289.9,659,289.9z M599.3,360.2V399c0,4.3-3.3,7.8-7.5,8.1c-4.4,0.2-8.1-3.2-8.3-7.5c0-0.1,0-0.2,0-0.4v-39
	c-8.9-4.4-12.6-15.1-8.3-24.1c4.4-8.9,15.1-12.6,24.1-8.3s12.6,15.1,8.3,24.1C605.8,355.5,602.9,358.4,599.3,360.2L599.3,360.2z
	 M629.7,289.9H553v-27.1c0-21.2,17.2-38.3,38.3-38.3s38.3,17.2,38.3,38.3L629.7,289.9z"/>
<path class="st8" d="M659,287.9h-13.5v-26.3c0-29.7-23.7-54.4-53.4-54.8c-30-0.3-54.5,23.7-54.8,53.7c0,0.1,0,0.3,0,0.4v27h-13.5
	c-12.4,0-22.5,10.1-22.6,22.5v108.2c0,12.4,10.1,22.5,22.6,22.5H659c12.4,0,22.5-10.1,22.5-22.5V310.4
	C681.5,298,671.5,287.9,659,287.9z M599.3,358.2V397c0,4.3-3.3,7.8-7.5,8.1c-4.4,0.2-8.1-3.2-8.3-7.5c0-0.1,0-0.2,0-0.4v-39
	c-8.9-4.4-12.6-15.1-8.3-24.1c4.4-8.9,15.1-12.6,24.1-8.3s12.6,15.1,8.3,24.1C605.8,353.5,602.9,356.4,599.3,358.2L599.3,358.2z
	 M629.7,287.9H553v-27.1c0-21.2,17.2-38.3,38.3-38.3s38.3,17.2,38.3,38.3L629.7,287.9z"/>
<rect x="906.9" y="236.2" class="st6" width="80.1" height="18.9"/>
<path class="st7" d="M864.4,453.1L864.4,453.1c-0.1,1.3-0.3,2.7-0.6,4c0-0.4,0-0.6-0.1-0.6C863.5,456.4,863.8,454.8,864.4,453.1z"/>
<rect x="117.5" y="457.2" class="st9" width="5.7" height="127.9"/>
<path class="st10" d="M158.8,584.7l-0.4,5.8l-0.5,8.1l-0.2,3.4l-0.5,8.1l-0.2,3.4l-0.5,8.1l-5.7,92.5c-0.5,8.3-7.4,14.7-15.6,14.7
	h-29.8c-8.3,0-15.1-6.4-15.6-14.7L84,621.6l-0.5-8.1l-0.2-3.4l-0.5-8.2l-0.2-3.4l-0.5-8.1l-0.4-5.8c-0.3-4.5,3.1-8.3,7.6-8.6
	c0.2,0,0.3,0,0.5,0h60.9c4.5,0,8.1,3.6,8.1,8.1C158.9,584.3,158.9,584.5,158.8,584.7z"/>
<polygon class="st11" points="158.5,590.5 158,598.6 82.6,598.6 82.1,590.5 "/>
<polygon class="st11" points="157.8,602 157.3,610.1 83.3,610.1 82.8,602 "/>
<polygon class="st11" points="157.1,613.5 156.6,621.6 84.1,621.6 83.5,613.5 "/>
<path class="st8" d="M73.4,505.1c33.1,23.9,46.9,61.4,46.9,61.4s-39.9-1.4-73-25.3S0.4,479.8,0.4,479.8S40.3,481.2,73.4,505.1z"/>
<path class="st12" d="M0.5,479.8c0,0,41.4,23,54.7,42c13.3,19,65.2,44.7,65.2,44.7"/>
<path class="st8" d="M94.8,457c18,13,25.5,33.4,25.5,33.4s-21.7-0.7-39.7-13.8s-25.5-33.4-25.5-33.4S76.8,443.9,94.8,457z"/>
<path class="st12" d="M55.1,443.1c0,0,22.5,12.5,29.7,22.9s35.5,24.3,35.5,24.3"/>
<path class="st8" d="M146.5,489.3c-20.7,22.7-25.1,52.4-25.1,52.4s29.2-7.2,49.8-29.9c20.7-22.7,25.1-52.4,25.1-52.4
	S167.1,466.5,146.5,489.3z"/>
<path class="st12" d="M196.3,459.4c0,0-26.9,23.3-33.8,39.4c-6.9,16.1-41.1,43-41.1,43"/>
</svg>
